<svg aria-hidden="true" style="position: absolute; width: 0; height: 0; overflow: hidden;" version="1.1" xmlns="http://www.w3.org/2000/svg" xmlns:xlink="http://www.w3.org/1999/xlink">
<defs>
<symbol id="icon-facebook" viewBox="0 0 32 32">
<path d="M27.313 0h-22.625c-2.588 0.003-4.684 2.1-4.687 4.687v22.626c0.003 2.588 2.1 4.684 4.687 4.687h9.438v-11.313h-3.75v-5.624h3.75v-3.813c0.004-3.105 2.521-5.621 5.625-5.624h5.687v5.624h-5.687v3.813h5.687l-0.937 5.624h-4.75v11.313h7.562c2.588-0.003 4.684-2.1 4.687-4.687v-22.626c-0.003-2.588-2.1-4.684-4.687-4.687h-0z"></path>
</symbol>
<symbol id="icon-git" viewBox="0 0 32 32">
<path d="M30.24 1.76c-1.174-1.174-2.587-1.76-4.241-1.76h-20c-1.651 0-3.066 0.586-4.239 1.76s-1.76 2.587-1.76 4.239v20.001c0 1.651 0.586 3.066 1.76 4.239s2.587 1.76 4.239 1.76h4.667c0.306 0 0.535-0.010 0.687-0.031 0.154-0.022 0.306-0.111 0.458-0.271 0.154-0.16 0.23-0.392 0.23-0.698l-0.012-1.417c-0.006-0.902-0.010-1.618-0.010-2.147l-0.48 0.084c-0.305 0.055-0.691 0.079-1.156 0.072-0.518-0.010-1.018-0.062-1.503-0.153l0.055 0.009c-0.534-0.101-1.005-0.321-1.402-0.63l0.007 0.005c-0.422-0.321-0.742-0.758-0.912-1.264l-0.005-0.019-0.207-0.479c-0.189-0.405-0.409-0.754-0.665-1.073l0.008 0.010c-0.298-0.389-0.602-0.653-0.906-0.792l-0.146-0.102c-0.102-0.074-0.19-0.157-0.268-0.249l-0.002-0.002c-0.074-0.084-0.137-0.18-0.185-0.285l-0.003-0.007c-0.041-0.097-0.006-0.178 0.104-0.241 0.111-0.063 0.314-0.093 0.605-0.093l0.416 0.064c0.278 0.054 0.621 0.22 1.032 0.499 0.41 0.278 0.746 0.639 1.010 1.083 0.32 0.57 0.704 1.004 1.156 1.302 0.452 0.3 0.906 0.448 1.364 0.448s0.855-0.035 1.188-0.104c0.333-0.069 0.645-0.174 0.937-0.312 0.125-0.931 0.466-1.646 1.021-2.147-0.803-0.080-1.529-0.212-2.234-0.397l0.099 0.022c-0.745-0.208-1.396-0.485-1.999-0.835l0.041 0.022c-0.66-0.363-1.216-0.829-1.669-1.384l-0.008-0.010c-0.445-0.557-0.81-1.285-1.094-2.189-0.284-0.902-0.428-1.944-0.428-3.124 0-1.681 0.55-3.11 1.646-4.292-0.513-1.263-0.465-2.68 0.146-4.25 0.403-0.125 1.001-0.032 1.792 0.282 0.792 0.312 1.371 0.58 1.74 0.801 0.369 0.223 0.663 0.41 0.886 0.563 1.293-0.361 2.624-0.541 4-0.541 1.375 0 2.708 0.179 4 0.541l0.792-0.499c0.541-0.334 1.18-0.64 1.916-0.918s1.299-0.355 1.688-0.229c0.625 1.569 0.68 2.986 0.166 4.25 1.097 1.181 1.645 2.611 1.645 4.292 0 1.181-0.141 2.227-0.426 3.136-0.284 0.909-0.653 1.638-1.105 2.188-0.451 0.548-1.014 1.011-1.687 1.385-0.563 0.328-1.213 0.605-1.898 0.798l-0.060 0.014c-0.632 0.166-1.344 0.292-2.135 0.375 0.722 0.625 1.083 1.612 1.083 2.958v4.979c0 0.237 0.035 0.428 0.102 0.573 0.067 0.141 0.185 0.249 0.33 0.301l0.004 0.001c0.154 0.055 0.289 0.090 0.407 0.104 0.119 0.014 0.288 0.022 0.511 0.022h4.667c1.651 0 3.066-0.588 4.239-1.761 1.172-1.174 1.76-2.587 1.76-4.239v-20.001c0-1.651-0.588-3.066-1.76-4.239z"></path>
</symbol>
<symbol id="icon-insta" viewBox="0 0 32 32">
<path d="M16.005 7.785c-4.534 0-8.21 3.676-8.21 8.21v0c0 0 0 0.001 0 0.001 0 4.534 3.676 8.21 8.21 8.21v0c0 0 0.001 0 0.001 0 4.534 0 8.21-3.676 8.21-8.21 0-0 0-0.001 0-0.001v0c0-4.534-3.676-8.21-8.21-8.21-0 0-0.001 0-0.001 0h0zM16.005 21.325c-0 0-0.001 0-0.001 0-2.942 0-5.327-2.385-5.327-5.327 0-0.001 0-0.002 0-0.003v0c0-2.943 2.386-5.329 5.329-5.329s5.329 2.386 5.329 5.329v0c0 0.001 0 0.002 0 0.003 0 2.942-2.385 5.327-5.327 5.327-0.001 0-0.002 0-0.003 0h0z"></path>
<path d="M22.597 0.101c-2.944-0.137-10.235-0.131-13.183 0-2.588 0.122-4.873 0.746-6.714 2.588-3.078 3.077-2.684 7.224-2.684 13.306 0 6.223-0.347 10.275 2.684 13.304 3.089 3.089 7.296 2.684 13.304 2.684 6.166 0 8.294 0.005 10.474-0.84 2.963-1.151 5.201-3.8 5.42-8.558 0.138-2.945 0.131-10.236 0-13.184-0.264-5.615-3.278-9.023-9.302-9.299zM27.258 27.263c-2.017 2.019-4.817 1.838-11.29 1.838-6.669 0-9.341 0.099-11.292-1.856-2.246-2.237-1.839-5.828-1.839-11.272 0-7.366-0.755-12.672 6.637-13.051 1.699-0.060 2.199-0.079 6.476-0.079l0.059 0.038c7.107 0 12.681-0.742 13.015 6.65 0.077 1.686 0.093 2.193 0.093 6.463 0 6.589 0.124 9.279-1.859 11.27z"></path>
<path d="M24.541 9.379c1.060 0 1.919-0.859 1.919-1.919s-0.859-1.919-1.919-1.919v0c-1.060 0-1.919 0.859-1.919 1.919s0.859 1.919 1.919 1.919v0z"></path>
</symbol>
<symbol id="icon-linkedin" viewBox="0 0 32 32">
<path d="M29.692 0h-27.384c-1.275 0-2.308 1.033-2.308 2.308v27.384c0 1.275 1.033 2.308 2.308 2.308h27.384c1.275 0 2.308-1.033 2.308-2.308v-27.384c0-1.275-1.033-2.308-2.308-2.308zM11.35 24.187h-3.895v-11.721h3.898v11.724zM9.404 10.862h-0.026c-1.308 0-2.154-0.899-2.154-2.024 0-1.151 0.872-2.026 2.205-2.026 1.332 0 2.153 0.876 2.179 2.026 0 1.125-0.845 2.025-2.204 2.025zM25.403 24.187h-3.899v-6.272c0-1.574-0.563-2.65-1.974-2.65-1.076 0-1.718 0.724-1.999 1.425-0.102 0.251-0.128 0.6-0.128 0.951v6.546h-3.898s0.051-10.624 0-11.722h3.898v1.659c0.517-0.799 1.444-1.934 3.511-1.934 2.564 0 4.486 1.676 4.486 5.276v6.723z"></path>
</symbol>
</defs>
</svg>
